<?xml version="1.0" encoding="UTF-8"?>
<!DOCTYPE svg PUBLIC "-//W3C//DTD SVG 1.1//EN" "http://www.w3.org/Graphics/SVG/1.1/DTD/svg11.dtd">
<svg xmlns="http://www.w3.org/2000/svg" version="1.1" width="204px" height="247px" style="shape-rendering:geometricPrecision; text-rendering:geometricPrecision; image-rendering:optimizeQuality; fill-rule:evenodd; clip-rule:evenodd" xmlns:xlink="http://www.w3.org/1999/xlink">
<g><path style="opacity:1" fill="#fdfdfd" d="M -0.5,-0.5 C 23.8333,-0.5 48.1667,-0.5 72.5,-0.5C 70.525,0.646381 69.025,2.31305 68,4.5C 67.5014,8.15159 67.3347,11.8183 67.5,15.5C 60.4921,15.3337 53.4921,15.5004 46.5,16C 44.3333,16.8333 42.8333,18.3333 42,20.5C 41.5026,23.146 41.3359,25.8127 41.5,28.5C 30.495,28.3335 19.495,28.5002 8.5,29C 4.27492,30.3911 1.60826,33.2244 0.5,37.5C 0.166667,37.5 -0.166667,37.5 -0.5,37.5C -0.5,24.8333 -0.5,12.1667 -0.5,-0.5 Z"/></g>
<g><path style="opacity:1" fill="#040404" d="M 72.5,-0.5 C 91.8333,-0.5 111.167,-0.5 130.5,-0.5C 133.27,0.31039 135.437,1.97706 137,4.5C 137.499,8.15159 137.665,11.8183 137.5,15.5C 144.615,15.0753 151.615,15.5753 158.5,17C 161.154,20.3273 162.154,24.1606 161.5,28.5C 172.505,28.3335 183.505,28.5002 194.5,29C 198.333,30.1667 200.833,32.6667 202,36.5C 202.5,106.499 202.667,176.499 202.5,246.5C 138.167,246.5 73.8333,246.5 9.5,246.5C 5.25253,245.422 2.4192,242.755 1,238.5C 0.500004,171.501 0.333337,104.501 0.5,37.5C 1.60826,33.2244 4.27492,30.3911 8.5,29C 19.495,28.5002 30.495,28.3335 41.5,28.5C 41.3359,25.8127 41.5026,23.146 42,20.5C 42.8333,18.3333 44.3333,16.8333 46.5,16C 53.4921,15.5004 60.4921,15.3337 67.5,15.5C 67.3347,11.8183 67.5014,8.15159 68,4.5C 69.025,2.31305 70.525,0.646381 72.5,-0.5 Z"/></g>
<g><path style="opacity:1" fill="#f7f7f7" d="M 130.5,-0.5 C 154.833,-0.5 179.167,-0.5 203.5,-0.5C 203.5,81.8333 203.5,164.167 203.5,246.5C 203.167,246.5 202.833,246.5 202.5,246.5C 202.667,176.499 202.5,106.499 202,36.5C 200.833,32.6667 198.333,30.1667 194.5,29C 183.505,28.5002 172.505,28.3335 161.5,28.5C 162.154,24.1606 161.154,20.3273 158.5,17C 151.615,15.5753 144.615,15.0753 137.5,15.5C 137.665,11.8183 137.499,8.15159 137,4.5C 135.437,1.97706 133.27,0.31039 130.5,-0.5 Z"/></g>
<g><path style="opacity:1" fill="#fdfdfd" d="M 77.5,9.5 C 94.1667,9.5 110.833,9.5 127.5,9.5C 127.334,13.8461 127.501,18.1794 128,22.5C 128.833,23.3333 129.667,24.1667 130.5,25C 137.158,25.4996 143.825,25.6663 150.5,25.5C 150.5,32.5 150.5,39.5 150.5,46.5C 117.833,46.5 85.1667,46.5 52.5,46.5C 52.5,39.5 52.5,32.5 52.5,25.5C 60.253,25.8961 67.9196,25.3961 75.5,24C 76.1258,23.2496 76.6258,22.4162 77,21.5C 77.4988,17.5138 77.6655,13.5138 77.5,9.5 Z"/></g>
<g><path style="opacity:1" fill="#cacaca" d="M -0.5,37.5 C -0.166667,37.5 0.166667,37.5 0.5,37.5C 0.333337,104.501 0.500004,171.501 1,238.5C 2.4192,242.755 5.25253,245.422 9.5,246.5C 6.16667,246.5 2.83333,246.5 -0.5,246.5C -0.5,176.833 -0.5,107.167 -0.5,37.5 Z"/></g>
<g><path style="opacity:1" fill="#fdfdfd" d="M 10.5,38.5 C 20.8333,38.5 31.1667,38.5 41.5,38.5C 41.3343,42.8461 41.501,47.1794 42,51.5C 43.1217,53.6238 44.6217,55.4571 46.5,57C 82.8333,57.6667 119.167,57.6667 155.5,57C 158,55.8333 159.833,54 161,51.5C 161.499,47.1794 161.666,42.8461 161.5,38.5C 171.833,38.5 182.167,38.5 192.5,38.5C 192.5,104.5 192.5,170.5 192.5,236.5C 131.833,236.5 71.1667,236.5 10.5,236.5C 10.5,170.5 10.5,104.5 10.5,38.5 Z"/></g>
<g><path style="opacity:1" fill="#080808" d="M 95.5,70.5 C 99.1817,70.3347 102.848,70.5014 106.5,71C 107.444,73.7191 107.777,76.5525 107.5,79.5C 109.787,79.7239 111.953,80.3906 114,81.5C 116.112,80.392 117.946,78.892 119.5,77C 120.5,76.3333 121.5,76.3333 122.5,77C 125.432,79.4233 127.765,82.2566 129.5,85.5C 128.441,88.0682 126.774,90.2349 124.5,92C 125.627,93.7533 126.627,95.5866 127.5,97.5C 130.167,98.1667 132.833,98.8333 135.5,99.5C 136.77,103.484 136.77,107.484 135.5,111.5C 132.342,111.826 129.508,112.826 127,114.5C 126.5,116 126,117.5 125.5,119C 127.053,121.048 128.386,123.215 129.5,125.5C 128.065,128.112 126.398,130.612 124.5,133C 122.833,133.667 121.167,133.667 119.5,133C 118.275,131.437 116.775,130.27 115,129.5C 112.953,130.609 110.787,131.276 108.5,131.5C 108.5,136.833 108.5,142.167 108.5,147.5C 125.595,147.029 142.595,147.529 159.5,149C 160,149.5 160.5,150 161,150.5C 161.667,160.5 161.667,170.5 161,180.5C 157.527,184.132 154.193,184.132 151,180.5C 150.5,173.508 150.334,166.508 150.5,159.5C 136.5,159.5 122.5,159.5 108.5,159.5C 108.666,165.842 108.5,172.175 108,178.5C 105.369,182.629 101.869,183.462 97.5,181C 96.2986,180.097 95.4652,178.931 95,177.5C 94.5005,171.509 94.3338,165.509 94.5,159.5C 80.5,159.5 66.5,159.5 52.5,159.5C 52.6663,166.508 52.4996,173.508 52,180.5C 48.0662,184.84 44.7329,184.507 42,179.5C 41.3333,170.167 41.3333,160.833 42,151.5C 42.3742,150.584 42.8742,149.75 43.5,149C 60.4054,147.529 77.4054,147.029 94.5,147.5C 94.5,142.167 94.5,136.833 94.5,131.5C 92.1732,131.335 90.0065,130.669 88,129.5C 81.6937,136.144 76.8604,134.977 73.5,126C 74.3877,123.438 75.721,121.104 77.5,119C 76.3906,116.953 75.7239,114.787 75.5,112.5C 72.8127,112.664 70.146,112.497 67.5,112C 66.1667,107.667 66.1667,103.333 67.5,99C 70.146,98.5026 72.8127,98.3359 75.5,98.5C 75.5861,96.323 76.2528,94.323 77.5,92.5C 75.6278,90.4649 73.9611,88.2983 72.5,86C 73.9867,82.0145 76.6533,79.1812 80.5,77.5C 83.3636,78.2074 85.8636,79.5408 88,81.5C 90.0466,80.3906 92.2133,79.7239 94.5,79.5C 94.2641,76.3915 94.5975,73.3915 95.5,70.5 Z"/></g>
<g><path style="opacity:1" fill="#fbfbfb" d="M 96.5,91.5 C 112.256,91.401 117.756,98.7344 113,113.5C 107.175,120.07 100.342,121.237 92.5,117C 86.8959,110.803 86.0626,103.969 90,96.5C 91.9651,94.4497 94.1318,92.783 96.5,91.5 Z"/></g>
<g><path style="opacity:1" fill="#030303" d="M 42.5,188.5 C 55.0066,187.505 60.5066,193.172 59,205.5C 55.6282,212.433 50.1282,214.933 42.5,213C 35.7759,209.517 33.2759,204.017 35,196.5C 37.0282,193.308 39.5282,190.641 42.5,188.5 Z"/></g>
<g><path style="opacity:1" fill="#020202" d="M 96.5,188.5 C 111.734,188.3 116.568,195.3 111,209.5C 103.354,215.354 96.3542,214.687 90,207.5C 87.07,199.371 89.2366,193.038 96.5,188.5 Z"/></g>
<g><path style="opacity:1" fill="#030303" d="M 151.5,188.5 C 165.025,188.181 170.192,194.515 167,207.5C 161.569,214.035 155.069,215.201 147.5,211C 141.178,202.022 142.511,194.522 151.5,188.5 Z"/></g>
</svg>
