<?xml version="1.0" encoding="utf-8"?>
<!-- Generator: Adobe Illustrator 27.5.0, SVG Export Plug-In . SVG Version: 6.00 Build 0)  -->
<svg version="1.1" id="Layer_1" xmlns="http://www.w3.org/2000/svg" xmlns:xlink="http://www.w3.org/1999/xlink" x="0px" y="0px"
	 viewBox="0 0 206 38" style="enable-background:new 0 0 206 38;" xml:space="preserve">
<style type="text/css">
	.st0{fill:#2B7FFE;}
	.st1{fill:#000E32;}
</style>
<g>
	<path class="st0" d="M0.8,21.8h4.7L0,28.7V38l16.9-21.7H5.1L0.8,21.8z"/>
	<path class="st1" d="M13.9,0H6.5L0,9.1v10.2L9,6.8l1.7,7h6.2L13.9,0z"/>
	<path class="st0" d="M162.4,24.5V14.1c0-1.4,1.2-2.5,2.6-2.5h5.7c1.5,0,2.7,1.1,2.7,2.5v10.3c0,1.4-1.2,2.5-2.7,2.5H165
		C163.5,27,162.4,25.9,162.4,24.5z M170.5,14.8c0-0.3-0.3-0.6-0.7-0.6h-3.9c-0.4,0-0.7,0.2-0.7,0.6v9.1c0,0.3,0.3,0.6,0.7,0.6h3.9
		c0.4,0,0.7-0.2,0.7-0.6V14.8z"/>
	<path class="st0" d="M181.6,21h-3V27h-2.9V11.6h8.4c1.5,0,2.7,1.1,2.7,2.5v4.3c0,1.2-0.8,2.2-2,2.5l3.1,6h-3.2L181.6,21z
		 M183.8,14.8c0-0.3-0.3-0.6-0.7-0.6h-4.6v4.3h4.6c0.4,0,0.7-0.2,0.7-0.6V14.8z"/>
	<path class="st1" d="M130.1,18H128v4.1h-2V11.5h5.9c1,0,1.8,0.8,1.8,1.8v3c0,0.8-0.6,1.5-1.4,1.7l2.2,4.2h-2.2L130.1,18z
		 M131.7,13.6c0-0.2-0.2-0.4-0.5-0.4H128v3h3.2c0.3,0,0.5-0.2,0.5-0.4V13.6z"/>
	<path class="st0" d="M188.2,11.6h11.6v2.5h-4.4V27h-2.9V14.1h-4.4L188.2,11.6L188.2,11.6z"/>
	<path class="st1" d="M20.4,11.6h2.9V27h-2.9V11.6z"/>
	<path class="st1" d="M112.2,11.5h-4.1c-1.2,0-2.2,0.8-2.2,1.9v6.9c0,1.1,1,1.9,2.2,1.9h4.1c1.2,0,2.2-0.8,2.2-1.9v-6.9
		C114.4,12.3,113.4,11.5,112.2,11.5z M112.3,20c0,0.3-0.2,0.5-0.6,0.5h-3c-0.3,0-0.6-0.2-0.6-0.5v-6.3c0-0.3,0.3-0.5,0.6-0.5h3
		c0.3,0,0.6,0.2,0.6,0.5V20z"/>
	<path class="st1" d="M35.4,21.9l-6.9-10.3h-2.8V27h3V16.8L35.5,27h2.9V11.6h-3V21.9z"/>
	<path class="st0" d="M145.5,18.5c-1.8-0.5-3-0.8-4.4-1.2c-0.4-0.1-0.7-0.3-0.7-0.7v-1.9c0-0.3,0.3-0.6,0.7-0.6h3.3
		c0.4,0,0.7,0.2,0.7,0.6v1.7l2.9-0.5v-1.8l0,0c0-1.4-1.2-2.5-2.7-2.5h-5.2c-1.5,0-2.6,1.1-2.6,2.5v3.4c0,1.4,1.1,2.1,2.5,2.5
		c1.8,0.5,3,0.8,4.4,1.2c0.4,0.1,0.7,0.3,0.7,0.7v1.9c0,0.3-0.3,0.6-0.7,0.6h-3.3c-0.4,0-0.7-0.2-0.7-0.6v-1.7l-2.9,0.5v1.8l0,0
		c0,1.4,1.2,2.5,2.7,2.5h5.2c1.5,0,2.6-1.1,2.6-2.5V21C148,19.6,146.9,18.9,145.5,18.5z"/>
	<path class="st0" d="M158.2,11.6H150V27h2.9v-5.9h5.3c1.5,0,2.7-1.1,2.7-2.5v-4.4C160.9,12.8,159.7,11.6,158.2,11.6z M158,17.9
		c0,0.3-0.3,0.6-0.7,0.6h-4.4v-4.4h4.4c0.4,0,0.7,0.2,0.7,0.6V17.9z"/>
	<path class="st1" d="M40.2,22.5v1.8c0,1.4,1.3,2.6,2.9,2.6h5.5c1.6,0,2.9-1.1,2.9-2.6V21c0-1.3-0.9-2.1-2.7-2.5
		c-1-0.2-1.8-0.5-2.6-0.7l0,0c-0.7-0.2-1.4-0.3-2.1-0.5c-0.4-0.1-0.6-0.3-0.6-0.6v-2c0-0.3,0.3-0.5,0.6-0.5h3.5
		c0.4,0,0.6,0.2,0.6,0.5v1.7l3.2-0.5v-1.7c0-1.4-1.3-2.6-2.9-2.6h-5.4c-1.6,0-2.9,1.1-2.9,2.6v3.1c0,1.2,0.9,2,2.8,2.5
		c1.9,0.5,2.6,0.7,4.5,1.2l0,0c0.5,0.1,0.6,0.4,0.6,0.6v2.2c0,0.3-0.3,0.5-0.6,0.5h-3.6c-0.4,0-0.6-0.2-0.6-0.5V22L40.2,22.5z"/>
	<path class="st1" d="M53.6,11.5v12.8c0,1.5,1.3,2.6,2.9,2.6h5.8c1.6,0,2.9-1.2,2.9-2.6V11.5H62v12.3c0,0.3-0.3,0.5-0.6,0.5h-3.8
		c-0.4,0-0.6-0.2-0.6-0.5V11.5H53.6z"/>
	<path class="st1" d="M116.2,11.5v8.9c0,1,0.9,1.8,2,1.8h4c1.1,0,2-0.8,2-1.8v-8.9H122V20c0,0.2-0.2,0.4-0.4,0.4h-2.7
		c-0.3,0-0.4-0.2-0.4-0.4v-8.5H116.2z"/>
	<path class="st1" d="M102,11.5v4.1c0,0.2-0.2,0.4-0.4,0.4h-2.7c-0.3,0-0.4-0.2-0.4-0.4v-4.1h-2.2V16c0,1,0.9,1.8,2,1.8h0.9v4.4h2.2
		v-4.4h1c1.1,0,2-0.8,2-1.8v-4.5H102z"/>
	<path class="st1" d="M76.9,27h3.5l-3.3-6l0.4-0.1c1-0.4,1.7-1.4,1.7-2.4v-4.3c0-1.4-1.3-2.6-2.9-2.6h-9V27h3.2v-5.9h3.1L76.9,27z
		 M75.4,18.4h-4.8v-4.2h4.8c0.4,0,0.6,0.2,0.6,0.5v3.2C76.1,18.1,75.8,18.4,75.4,18.4z"/>
	<path class="st1" d="M85.8,24.2v-3.8h4.3v-2.6h-4.3v-3.7h7.3v-2.6H82.6v15.4h6.2l2.1-2.7C90.9,24.2,85.8,24.2,85.8,24.2z"/>
	<path class="st0" d="M90.7,27h43.9v-2.7H92.8L90.7,27z"/>
</g>
</svg>
