<?xml version="1.0" encoding="UTF-8"?>
<!DOCTYPE svg PUBLIC "-//W3C//DTD SVG 1.1//EN" "http://www.w3.org/Graphics/SVG/1.1/DTD/svg11.dtd">
<svg xmlns="http://www.w3.org/2000/svg" version="1.1" width="200px" height="252px" style="shape-rendering:geometricPrecision; text-rendering:geometricPrecision; image-rendering:optimizeQuality; fill-rule:evenodd; clip-rule:evenodd" xmlns:xlink="http://www.w3.org/1999/xlink">
<g><path style="opacity:1" fill="#fdfdfd" d="M -0.5,-0.5 C 23.8333,-0.5 48.1667,-0.5 72.5,-0.5C 67.0103,3.31981 65.0103,8.65314 66.5,15.5C 59.4921,15.3337 52.4921,15.5004 45.5,16C 40.9413,19.2897 39.2746,23.7897 40.5,29.5C 29.495,29.3335 18.495,29.5002 7.5,30C 3.97911,31.6904 1.31244,34.1904 -0.5,37.5C -0.5,24.8333 -0.5,12.1667 -0.5,-0.5 Z"/></g>
<g><path style="opacity:1" fill="#050505" d="M 72.5,-0.5 C 90.1667,-0.5 107.833,-0.5 125.5,-0.5C 131.954,2.74222 134.288,8.07555 132.5,15.5C 139.175,15.3337 145.842,15.5004 152.5,16C 158.012,18.7586 160.012,23.2586 158.5,29.5C 169.172,29.3335 179.839,29.5002 190.5,30C 194.595,31.268 197.595,33.768 199.5,37.5C 199.5,105.833 199.5,174.167 199.5,242.5C 197.475,246.525 194.475,249.525 190.5,251.5C 129.5,251.5 68.5,251.5 7.5,251.5C 4.11945,249.12 1.45279,246.12 -0.5,242.5C -0.5,174.167 -0.5,105.833 -0.5,37.5C 1.31244,34.1904 3.97911,31.6904 7.5,30C 18.495,29.5002 29.495,29.3335 40.5,29.5C 39.2746,23.7897 40.9413,19.2897 45.5,16C 52.4921,15.5004 59.4921,15.3337 66.5,15.5C 65.0103,8.65314 67.0103,3.31981 72.5,-0.5 Z"/></g>
<g><path style="opacity:1" fill="#fdfdfd" d="M 125.5,-0.5 C 150.167,-0.5 174.833,-0.5 199.5,-0.5C 199.5,12.1667 199.5,24.8333 199.5,37.5C 197.595,33.768 194.595,31.268 190.5,30C 179.839,29.5002 169.172,29.3335 158.5,29.5C 160.012,23.2586 158.012,18.7586 152.5,16C 145.842,15.5004 139.175,15.3337 132.5,15.5C 134.288,8.07555 131.954,2.74222 125.5,-0.5 Z"/></g>
<g><path style="opacity:1" fill="#fcfcfc" d="M 126.5,25.5 C 133.313,26.4912 140.313,26.8245 147.5,26.5C 147.5,33.5 147.5,40.5 147.5,47.5C 115.5,47.5 83.5,47.5 51.5,47.5C 51.5,40.5 51.5,33.5 51.5,26.5C 58.3543,26.824 65.021,26.4907 71.5,25.5C 73.5816,25.3757 75.0816,24.3757 76,22.5C 76.499,18.1794 76.6657,13.8461 76.5,9.5C 91.8333,9.5 107.167,9.5 122.5,9.5C 122.334,14.1785 122.501,18.8452 123,23.5C 124.113,24.305 125.279,24.9717 126.5,25.5 Z"/></g>
<g><path style="opacity:1" fill="#b1b1b1" d="M 71.5,25.5 C 65.021,26.4907 58.3543,26.824 51.5,26.5C 51.5,33.5 51.5,40.5 51.5,47.5C 50.5084,40.3524 50.175,33.0191 50.5,25.5C 57.5,25.5 64.5,25.5 71.5,25.5 Z"/></g>
<g><path style="opacity:1" fill="#b1b1b1" d="M 126.5,25.5 C 133.833,25.5 141.167,25.5 148.5,25.5C 148.825,33.0191 148.492,40.3524 147.5,47.5C 147.5,40.5 147.5,33.5 147.5,26.5C 140.313,26.8245 133.313,26.4912 126.5,25.5 Z"/></g>
<g><path style="opacity:1" fill="#fbfbfb" d="M 10.5,39.5 C 20.5,39.5 30.5,39.5 40.5,39.5C 40.3343,43.8461 40.501,48.1794 41,52.5C 41.7739,54.9393 43.2739,56.7727 45.5,58C 81.1667,58.6667 116.833,58.6667 152.5,58C 155.333,57.1667 157.167,55.3333 158,52.5C 158.499,48.1794 158.666,43.8461 158.5,39.5C 168.749,39.1806 178.916,39.5139 189,40.5C 189.667,107.167 189.667,173.833 189,240.5C 159.238,241.165 129.404,241.498 99.5,241.5C 69.5958,241.498 39.7624,241.165 10,240.5C 9.17052,173.43 9.33719,106.43 10.5,39.5 Z"/></g>
<g><path style="opacity:1" fill="#060606" d="M 43.5,95.5 C 46.1059,98.1277 48.4392,101.128 50.5,104.5C 53.6612,103.087 56.6612,101.42 59.5,99.5C 61.2927,102.251 62.9594,105.084 64.5,108C 61.5,109.833 58.5,111.667 55.5,113.5C 57.0392,116.746 58.7059,119.912 60.5,123C 57.9952,124.753 55.3286,126.253 52.5,127.5C 50.3454,124.538 48.1788,121.538 46,118.5C 43.4136,120.545 40.5802,122.211 37.5,123.5C 35.3328,121.17 33.6662,118.503 32.5,115.5C 35.328,113.252 38.328,111.252 41.5,109.5C 39.5797,106.661 37.9131,103.661 36.5,100.5C 39.0765,99.0569 41.4099,97.3902 43.5,95.5 Z"/></g>
<g><path style="opacity:1" fill="#070707" d="M 136.5,103.5 C 148.511,101.589 157.344,105.923 163,116.5C 165.988,127.863 162.488,136.696 152.5,143C 139.454,147.551 129.954,143.718 124,131.5C 120.548,118.667 124.715,109.334 136.5,103.5 Z"/></g>
<g><path style="opacity:1" fill="#040404" d="M 95.5,109.5 C 96.552,109.351 97.552,109.517 98.5,110C 105.044,116.049 111.711,121.882 118.5,127.5C 112.159,134.34 105.659,141.007 99,147.5C 96.0341,145.702 93.5341,143.369 91.5,140.5C 92.982,138.517 94.6487,136.684 96.5,135C 82.5255,135.08 72.6921,141.58 67,154.5C 64.6036,160.359 64.1036,166.359 65.5,172.5C 75.7532,177.475 78.2532,185.141 73,195.5C 67.656,200.654 61.4893,201.82 54.5,199C 45.7887,191.442 45.2887,183.275 53,174.5C 52.4192,144.425 66.9192,127.258 96.5,123C 93.8723,121.374 91.539,119.374 89.5,117C 92.0939,114.914 94.0939,112.414 95.5,109.5 Z"/></g>
<g><path style="opacity:1" fill="#f9f9f9" d="M 140.5,111.5 C 151.675,111.838 156.509,117.505 155,128.5C 150.358,136.812 143.858,138.646 135.5,134C 130.194,127.535 130.194,121.035 135.5,114.5C 137.145,113.304 138.811,112.304 140.5,111.5 Z"/></g>
<g><path style="opacity:1" fill="#060606" d="M 108.5,165.5 C 110.165,168.817 112.332,171.817 115,174.5C 117.667,173.167 120.333,171.833 123,170.5C 125.434,172.525 127.268,175.025 128.5,178C 125.5,180.167 122.5,182.333 119.5,184.5C 121.293,187.251 122.959,190.084 124.5,193C 121.922,195.207 119.089,197.04 116,198.5C 114.365,195.209 112.365,192.209 110,189.5C 107.178,190.578 104.512,191.911 102,193.5C 101.228,193.355 100.561,193.022 100,192.5C 98.9605,190.254 97.7938,188.087 96.5,186C 99.0779,183.793 101.911,181.96 105,180.5C 103.978,177.281 102.478,174.114 100.5,171C 103.407,169.391 106.073,167.558 108.5,165.5 Z"/></g>
<g><path style="opacity:1" fill="#f7f7f7" d="M 58.5,181.5 C 66.4863,180.998 68.4863,184.165 64.5,191C 56.8046,191.443 54.8046,188.277 58.5,181.5 Z"/></g>
<g><path style="opacity:1" fill="#f3f3f3" d="M -0.5,242.5 C 1.45279,246.12 4.11945,249.12 7.5,251.5C 4.83333,251.5 2.16667,251.5 -0.5,251.5C -0.5,248.5 -0.5,245.5 -0.5,242.5 Z"/></g>
<g><path style="opacity:1" fill="#f0f0f0" d="M 199.5,242.5 C 199.5,245.5 199.5,248.5 199.5,251.5C 196.5,251.5 193.5,251.5 190.5,251.5C 194.475,249.525 197.475,246.525 199.5,242.5 Z"/></g>
</svg>
