<?xml version="1.0" standalone="no"?>
<!DOCTYPE svg PUBLIC "-//W3C//DTD SVG 20010904//EN"
 "http://www.w3.org/TR/2001/REC-SVG-20010904/DTD/svg10.dtd">
<svg version="1.0" xmlns="http://www.w3.org/2000/svg"
 width="225.000000pt" height="225.000000pt" viewBox="0 0 225.000000 225.000000"
 preserveAspectRatio="xMidYMid meet">

<g transform="translate(0.000000,225.000000) scale(0.100000,-0.100000)"
fill="#000000" stroke="none">
<path d="M965 2220 c-375 -60 -686 -289 -845 -622 -142 -298 -142 -648 0 -946
249 -525 865 -766 1405 -552 329 131 567 403 663 758 23 87 26 115 26 267 0
152 -3 180 -26 267 -111 412 -413 709 -822 809 -94 23 -310 33 -401 19z m313
-175 c200 -38 369 -128 509 -272 111 -114 178 -231 230 -402 24 -78 27 -102
27 -246 0 -144 -3 -168 -27 -246 -35 -116 -68 -187 -122 -269 -256 -385 -754
-526 -1170 -331 -108 51 -163 89 -254 175 -130 125 -216 271 -262 446 -32 121
-32 329 0 450 28 105 87 232 145 313 50 71 170 189 236 234 200 136 459 191
688 148z"/>
<path d="M1355 1719 c-11 -6 -30 -18 -42 -25 l-23 -14 18 -48 c17 -43 17 -51
4 -70 -10 -15 -25 -22 -47 -22 -57 0 -65 -7 -65 -60 0 -51 10 -60 71 -60 16 0
32 -9 41 -22 13 -20 13 -27 -4 -66 -21 -47 -21 -48 34 -81 l36 -21 32 40 c40
51 64 51 107 1 l33 -39 45 24 c47 27 48 33 14 95 -14 27 13 69 44 69 57 0 67
10 67 60 0 52 -8 60 -61 60 -19 0 -34 8 -44 24 -14 21 -14 27 4 69 l20 46 -42
26 -42 25 -36 -40 c-20 -22 -45 -40 -55 -40 -10 0 -34 18 -54 40 -30 34 -38
38 -55 29z m170 -174 c56 -55 16 -155 -61 -155 -51 0 -89 38 -89 90 0 34 6 47
28 66 38 32 90 32 122 -1z"/>
<path d="M772 1553 c-5 -10 -12 -39 -16 -64 -5 -36 -12 -49 -32 -58 -23 -10
-31 -7 -76 25 l-50 37 -54 -54 c-30 -29 -54 -58 -54 -64 1 -5 16 -28 34 -49
33 -38 35 -56 10 -95 -2 -1 -29 -8 -61 -15 l-58 -11 -3 -73 c-3 -81 -5 -79 73
-90 40 -6 49 -11 60 -38 12 -29 11 -34 -21 -74 -39 -49 -38 -54 30 -119 l45
-44 41 28 c22 16 43 32 45 36 3 4 19 2 35 -4 23 -9 31 -19 35 -47 13 -84 14
-85 89 -88 38 -2 73 1 78 6 5 5 11 32 15 61 5 44 10 54 35 67 28 14 30 14 73
-21 51 -43 59 -41 124 30 l42 46 -21 27 c-50 66 -51 68 -39 96 12 26 19 29 92
41 l37 6 0 78 0 79 -55 7 c-48 6 -57 10 -71 37 -15 29 -15 32 15 73 17 24 31
48 31 54 0 14 -67 89 -91 101 -13 8 -28 2 -64 -25 -43 -34 -47 -35 -74 -21
-24 13 -29 23 -35 68 -4 29 -13 56 -19 60 -7 4 -40 8 -74 8 -49 0 -64 -4 -71
-17z m173 -274 c55 -38 80 -84 80 -149 0 -189 -247 -247 -336 -80 -35 64 -17
163 38 212 57 52 156 59 218 17z"/>
<path d="M1337 1006 c-52 -32 -51 -29 -29 -79 18 -40 19 -48 5 -66 -8 -12 -25
-21 -41 -21 -62 0 -72 -9 -72 -60 0 -52 8 -60 60 -60 17 0 38 -9 48 -21 19
-20 19 -21 1 -70 l-19 -49 42 -26 42 -27 36 42 c22 25 44 41 58 41 12 0 22 -3
22 -7 1 -5 14 -23 30 -42 l28 -33 41 23 c45 25 48 33 26 85 -23 57 -5 77 75
86 23 3 25 8 28 54 3 56 -5 64 -69 64 -42 0 -54 36 -30 90 l20 45 -37 22 c-49
30 -56 29 -89 -12 -15 -19 -37 -35 -48 -35 -11 0 -36 18 -55 40 l-35 39 -38
-23z m182 -162 c25 -21 31 -33 31 -65 0 -86 -100 -123 -154 -58 -30 35 -32 58
-10 100 27 53 86 63 133 23z"/>
</g>
</svg>
