<?xml version="1.0" standalone="no"?>
<!DOCTYPE svg PUBLIC "-//W3C//DTD SVG 20010904//EN"
 "http://www.w3.org/TR/2001/REC-SVG-20010904/DTD/svg10.dtd">
<svg version="1.0" xmlns="http://www.w3.org/2000/svg"
 width="512.000000pt" height="512.000000pt" viewBox="0 0 512.000000 512.000000"
 preserveAspectRatio="xMidYMid meet">

<g transform="translate(0.000000,512.000000) scale(0.100000,-0.100000)"
fill="#000000" stroke="none">
<path d="M491 4798 c-5 -13 -14 -37 -21 -54 -16 -44 -58 -81 -116 -103 -64
-25 -66 -49 -6 -71 59 -20 98 -62 124 -132 17 -49 25 -58 42 -56 14 2 23 14
29 42 12 48 68 106 137 141 62 31 63 54 5 73 -52 17 -98 63 -129 129 -27 57
-51 68 -65 31z m39 -108 c0 -5 18 -28 41 -51 22 -22 39 -42 37 -43 -1 -1 -25
-22 -51 -46 -44 -40 -50 -42 -59 -27 -5 10 -23 33 -38 51 l-29 32 40 38 c21
21 39 43 39 47 0 5 5 9 10 9 6 0 10 -4 10 -10z"/>
<path d="M3517 4804 c-425 -77 -759 -389 -879 -821 -19 -67 -22 -105 -22 -270
-1 -137 -4 -193 -12 -193 -8 0 -13 33 -16 93 -3 69 -10 102 -26 134 -56 108
-208 136 -304 55 -49 -42 -68 -94 -68 -194 l0 -88 -259 0 -259 0 -4 93 c-3 69
-10 102 -26 134 -56 108 -208 136 -304 55 -49 -42 -68 -94 -68 -194 l0 -86
-372 -4 c-295 -3 -381 -7 -410 -19 -66 -25 -122 -73 -153 -130 l-30 -54 -3
-706 c-2 -620 -1 -708 13 -719 8 -7 22 -10 30 -6 13 5 15 69 15 511 l0 505
700 0 c614 0 701 2 706 15 5 12 31 15 144 15 110 0 140 -3 150 -15 11 -13 74
-15 457 -15 l445 0 47 -38 c75 -63 137 -101 236 -148 86 -41 259 -94 306 -94
18 0 19 -12 19 -215 0 -288 -23 -265 264 -265 l214 0 26 31 26 31 0 194 c0
198 -7 243 -42 257 -8 4 -3 9 11 13 50 15 218 103 281 148 l65 45 3 -1161 2
-1161 -24 -52 c-24 -53 -67 -94 -121 -115 -23 -9 -482 -12 -1889 -10 -2074 2
-1905 -5 -1971 73 -19 22 -40 57 -45 76 -6 22 -10 241 -10 547 0 442 -2 513
-15 524 -12 10 -18 10 -30 0 -22 -19 -22 -1011 0 -1087 18 -60 80 -135 139
-166 l41 -22 1875 -3 c2079 -2 1925 -7 2008 64 22 19 53 60 69 92 l28 57 3
1198 2 1199 55 65 c140 164 224 334 267 538 16 77 16 323 0 400 -97 463 -449
811 -899 890 -107 18 -281 18 -386 -1z m454 -73 c179 -48 321 -128 454 -253
151 -143 249 -307 302 -506 23 -85 26 -116 26 -257 0 -141 -3 -172 -26 -257
-51 -193 -149 -360 -290 -495 -97 -93 -166 -139 -290 -198 -133 -63 -235 -87
-397 -93 -156 -5 -261 11 -394 59 -448 162 -737 619 -686 1086 50 467 383 832
846 928 101 21 354 13 455 -14z m-2446 -955 c19 -8 44 -30 55 -48 18 -30 20
-50 20 -223 0 -168 -2 -194 -19 -221 -50 -82 -173 -81 -228 3 -15 23 -18 55
-21 208 -3 203 3 230 67 272 39 26 77 29 126 9z m920 0 c19 -8 44 -30 55 -48
18 -30 20 -50 20 -223 0 -168 -2 -194 -19 -221 -50 -82 -173 -81 -228 3 -15
23 -18 55 -21 208 -3 203 3 230 67 272 39 26 77 29 126 9z m1583 -1179 c9 -11
12 -67 10 -203 l-3 -189 -200 0 -200 0 -3 189 c-1 108 2 193 7 200 6 7 72 12
193 14 152 3 186 1 196 -11z"/>
<path d="M3540 4585 c-349 -72 -623 -343 -697 -689 -19 -91 -19 -271 0 -362
76 -358 369 -636 732 -695 102 -16 278 -6 375 21 302 86 538 326 621 635 18
64 22 108 22 220 0 112 -4 156 -22 220 -90 331 -354 582 -683 649 -92 19 -257
19 -348 1z m338 -61 c501 -103 788 -632 602 -1112 -182 -471 -756 -666 -1194
-404 -145 87 -265 224 -334 384 -45 104 -63 200 -63 332 1 388 270 716 656
801 83 19 241 18 333 -1z"/>
<path d="M3694 4476 c-9 -23 0 -51 16 -51 10 0 15 10 15 29 0 32 -21 47 -31
22z"/>
<path d="M3164 4259 c-3 -6 3 -20 14 -31 24 -24 47 -16 32 11 -12 23 -37 34
-46 20z"/>
<path d="M4227 4252 c-17 -18 -23 -42 -11 -42 18 0 44 24 44 40 0 25 -12 25
-33 2z"/>
<path d="M4002 3972 l-222 -167 -68 0 c-66 0 -68 1 -147 58 -80 58 -117 68
-123 35 -2 -11 26 -39 87 -85 86 -64 91 -70 91 -104 0 -29 7 -43 31 -63 34
-29 67 -33 108 -11 31 15 56 64 49 92 -4 14 49 58 223 188 125 94 231 176 234
184 6 15 -12 41 -29 41 -6 -1 -111 -76 -234 -168z"/>
<path d="M2940 3715 c0 -10 10 -15 30 -15 20 0 30 5 30 15 0 10 -10 15 -30 15
-20 0 -30 -5 -30 -15z"/>
<path d="M4420 3715 c0 -12 8 -16 33 -13 17 2 32 8 32 13 0 6 -15 11 -32 13
-25 3 -33 -1 -33 -13z"/>
<path d="M3175 3200 c-13 -15 -15 -24 -8 -31 13 -13 57 26 48 41 -9 15 -20 12
-40 -10z"/>
<path d="M4210 3207 c0 -14 31 -47 43 -47 12 0 8 35 -5 48 -16 16 -38 15 -38
-1z"/>
<path d="M3694 2996 c-9 -23 0 -51 16 -51 10 0 15 10 15 29 0 32 -21 47 -31
22z"/>
<path d="M934 4622 c-6 -4 -14 -25 -18 -47 -17 -93 -81 -161 -189 -200 -45
-17 -63 -28 -65 -43 -3 -21 3 -24 67 -37 68 -14 141 -103 181 -220 28 -82 51
-73 79 32 16 57 88 128 177 174 86 45 91 65 18 88 -27 10 -64 27 -81 39 -34
24 -92 107 -113 162 -22 57 -33 67 -56 52z m100 -230 c17 -19 44 -40 60 -49
l28 -15 -38 -25 c-54 -36 -82 -62 -114 -106 l-28 -37 -30 53 c-17 30 -49 69
-71 88 l-41 34 47 35 c27 19 62 56 78 81 l30 45 24 -35 c13 -20 38 -51 55 -69z"/>
<path d="M490 4271 c-5 -11 -10 -28 -10 -38 0 -43 -74 -114 -133 -128 -61 -16
-56 -57 8 -69 43 -8 98 -71 120 -137 9 -27 20 -51 25 -54 16 -10 40 7 40 28 0
11 11 39 24 61 22 38 41 52 134 107 44 26 39 50 -11 62 -50 12 -103 65 -133
134 -25 55 -46 67 -64 34z m77 -161 l41 -45 -49 -45 -49 -46 -27 38 c-14 22
-33 43 -41 47 -11 6 -5 18 29 54 24 25 46 44 49 43 3 0 24 -21 47 -46z"/>
<path d="M728 2654 c-15 -8 -32 -23 -38 -34 -6 -11 -10 -103 -10 -223 0 -203
0 -204 25 -231 l24 -26 215 0 214 0 26 31 26 31 0 194 c0 218 -6 244 -61 263
-51 17 -387 14 -421 -5z m411 -58 c8 -9 11 -72 9 -202 l-3 -189 -200 0 -200 0
-3 189 c-2 130 1 193 9 202 9 11 51 14 194 14 143 0 185 -3 194 -14z"/>
<path d="M1694 2656 c-50 -22 -56 -51 -52 -269 3 -191 4 -196 27 -221 l24 -26
214 0 c286 0 263 -22 263 259 0 207 0 210 -24 238 l-24 28 -199 2 c-150 2
-205 0 -229 -11z m411 -256 l0 -195 -195 0 -195 0 -3 198 -2 197 197 -2 198
-3 0 -195z"/>
<path d="M2670 2663 c-8 -3 -25 -15 -37 -26 -22 -20 -23 -25 -23 -234 0 -286
-22 -263 260 -263 280 0 260 -19 261 242 2 238 3 228 -27 258 -24 25 -26 25
-222 27 -108 1 -204 -1 -212 -4z m384 -59 c14 -5 16 -33 16 -205 l0 -199 -197
2 -198 3 -3 194 c-2 149 1 196 10 203 15 9 348 11 372 2z"/>
<path d="M709 1861 l-29 -29 0 -207 0 -207 30 -29 30 -30 210 3 c277 4 254
-19 258 258 l3 210 -30 30 -29 30 -207 0 -207 0 -29 -29z m435 -47 c12 -31 7
-369 -6 -382 -13 -13 -351 -18 -382 -6 -14 5 -16 32 -16 198 0 106 3 196 7
199 3 4 93 7 199 7 166 0 193 -2 198 -16z"/>
<path d="M1673 1866 l-28 -24 -3 -200 c-3 -220 3 -253 54 -272 14 -6 113 -10
220 -10 l196 0 29 29 29 29 0 209 c-1 148 -4 213 -13 224 -27 35 -54 39 -256
39 -197 0 -200 0 -228 -24z m432 -241 l0 -200 -189 -3 c-130 -2 -193 1 -202 9
-11 9 -14 50 -14 189 0 98 3 186 6 194 6 14 30 16 203 14 l196 -3 0 -200z"/>
<path d="M2635 1865 l-25 -24 0 -213 c1 -152 4 -218 13 -229 27 -35 54 -39
247 -39 199 0 239 7 254 45 3 9 6 111 6 226 0 281 22 259 -260 259 -211 0
-211 0 -235 -25z m430 -240 l0 -200 -195 0 -195 0 -3 190 c-1 104 0 195 3 202
3 11 46 13 197 11 l193 -3 0 -200z"/>
<path d="M3599 1861 l-29 -29 0 -207 0 -207 30 -29 30 -30 210 3 c278 4 255
-20 255 264 l0 216 -28 24 c-28 24 -31 24 -233 24 l-206 0 -29 -29z m435 -47
c3 -9 6 -96 6 -194 0 -139 -3 -180 -14 -189 -9 -8 -72 -11 -202 -9 l-189 3 -3
190 c-1 104 0 195 2 202 4 10 51 13 200 13 168 0 195 -2 200 -16z"/>
<path d="M733 1105 c-17 -7 -36 -22 -42 -34 -7 -12 -11 -97 -11 -226 0 -205 0
-206 25 -230 l24 -25 213 0 c152 1 218 4 229 13 35 27 39 54 39 247 0 220 -6
242 -68 259 -57 16 -370 13 -409 -4z m400 -58 c16 -11 17 -32 15 -202 l-3
-190 -200 0 -200 0 -3 190 c-2 170 -1 191 15 202 24 18 352 18 376 0z"/>
<path d="M1715 1112 c-70 -23 -75 -40 -75 -266 l0 -194 26 -31 26 -31 214 0
c286 0 264 -22 264 255 0 129 -4 214 -11 227 -21 39 -67 48 -251 47 -95 -1
-182 -4 -193 -7z m378 -65 c16 -11 17 -32 15 -202 l-3 -190 -200 0 -200 0 -3
190 c-2 170 -1 191 15 202 24 18 352 18 376 0z"/>
<path d="M2675 1113 c-11 -3 -30 -14 -42 -26 -22 -20 -23 -25 -23 -234 0 -286
-22 -263 260 -263 280 0 260 -19 261 242 2 238 3 228 -27 258 -24 25 -26 25
-217 27 -105 1 -201 -1 -212 -4z m379 -59 c14 -5 16 -33 16 -205 l0 -199 -200
0 -200 0 0 199 c0 150 3 201 13 204 18 8 352 8 371 1z"/>
<path d="M3623 1105 c-17 -7 -36 -22 -42 -34 -7 -12 -11 -97 -11 -226 0 -277
-22 -255 264 -255 l214 0 26 31 26 31 0 194 c0 218 -6 244 -61 263 -48 17
-376 14 -416 -4z m400 -58 c16 -11 17 -32 15 -202 l-3 -190 -200 0 -200 0 -3
190 c-2 170 -1 191 15 202 24 18 352 18 376 0z"/>
</g>
</svg>
